<?xml version="1.0" encoding="UTF-8"?>
<svg width="85px" height="85px" viewBox="0 0 85 85" version="1.1" xmlns="http://www.w3.org/2000/svg" xmlns:xlink="http://www.w3.org/1999/xlink">
    <!-- Generator: Sketch 49 (51002) - http://www.bohemiancoding.com/sketch -->
    <title>coffee-logo</title>
    <desc>Created with Sketch.</desc>
    <defs></defs>
    <g id="Page-1" stroke="none" stroke-width="1" fill="none" fill-rule="evenodd">
        <g id="Desktop" transform="translate(-64.000000, -30.000000)" fill="#FFFFFF">
            <path d="M106.5,115 C83.0653831,115 64,95.9348419 64,72.5005014 C64,49.0661609 83.0653831,30 106.5,30 C129.934617,30 149,49.0661609 149,72.5005014 C149,95.9348419 129.934617,115 106.5,115 Z M106.5,31.002796 C83.6179302,31.002796 65.0028079,49.6176988 65.0028079,72.5005014 C65.0028079,95.3812984 83.6179302,113.997204 106.5,113.997204 C129.38207,113.997204 147.997192,95.3812984 147.997192,72.5005014 C147.997192,49.6176988 129.38207,31.002796 106.5,31.002796 Z M84.7437826,48.4244718 C83.7510028,48.4044158 82.9537706,48.7463693 82.3540915,49.4503321 C82.0893502,49.7601961 81.9008223,50.0961327 81.7885078,50.4551337 C81.6761933,50.8161403 81.6350782,51.1731357 81.6661653,51.5291283 C81.6982551,51.8841181 81.8005415,52.2310855 81.9760329,52.568025 C82.1495187,52.9049644 82.3921982,53.2058032 82.701063,53.4695386 C83.0179503,53.7402935 83.3568993,53.934836 83.7179101,54.0541687 C84.0779182,54.1724986 84.4399318,54.21963 84.8019454,54.1945601 C85.1639591,54.1694902 85.5129362,54.0742246 85.847874,53.9097661 C86.1828119,53.7453075 86.4786402,53.511656 86.7373646,53.2088116 C87.3019454,52.547969 87.5275772,51.7116372 87.4152627,50.7038271 L89.8651223,52.7936541 L89.7588247,53.0684202 C89.6003811,53.4805694 89.4309065,53.8465899 89.2504011,54.1674846 C89.0678901,54.4863738 88.8633173,54.780193 88.6356799,55.0469368 C88.1673686,55.5954662 87.6138187,56.0346908 86.9780385,56.3595968 C86.3402527,56.6865083 85.6693742,56.8810507 84.9664059,56.9422213 C84.261432,57.0053974 83.5524469,56.9311905 82.836442,56.7226089 C82.1204372,56.5130246 81.4565784,56.1480068 80.8438628,55.6255501 C80.2311472,55.1020905 79.76785,54.5094381 79.4529683,53.8445843 C79.1380866,53.1817361 78.958584,52.498832 78.9164661,51.7998832 C78.8743482,51.1009344 78.9656037,50.4100079 79.1902327,49.726101 C79.4158644,49.0421941 79.7648416,48.4214634 80.2391697,47.8649116 C80.5099278,47.5490308 80.8087645,47.2662423 81.1366827,47.0175489 C81.4646009,46.7688555 81.8436623,46.5342012 82.272864,46.3155917 L84.7437826,48.4244718 Z M91.4212796,45.3278376 C91.1695748,44.5927881 91.0723024,43.8617498 91.1264541,43.1337199 C91.1816085,42.40569 91.3701364,41.7237887 91.6900321,41.0870132 C92.0109306,40.4492349 92.4601885,39.8826552 93.0398115,39.3872739 C93.6184316,38.8918927 94.310369,38.5058162 95.1166266,38.2320529 C95.912856,37.9592924 96.6940433,37.842968 97.4591857,37.8790687 C98.2253309,37.9161722 98.9323105,38.0886531 99.5791215,38.3955087 C100.226935,38.703367 100.794525,39.1275498 101.281889,39.6700624 C101.770257,40.2125751 102.13929,40.8523589 102.390995,41.5884112 C102.641697,42.3234607 102.739972,43.054499 102.684817,43.7825289 C102.629663,44.5105589 102.440132,45.1934629 102.115223,45.8312412 C101.790313,46.4710251 101.336041,47.0376049 100.75341,47.5349917 C100.169775,48.0323785 99.4788408,48.4174522 98.6826113,48.6892099 C97.8763538,48.963976 97.0931609,49.0813032 96.3320297,49.0431969 C95.5708985,49.0050907 94.868933,48.8306042 94.2261332,48.5227458 C93.5833333,48.2138846 93.0177497,47.7876963 92.5293823,47.2451836 C92.0410148,46.7036738 91.6719815,46.0638899 91.4212796,45.3278376 Z M94.1138187,44.4092765 C94.2481949,44.8043781 94.4467509,45.1423204 94.7094866,45.4251088 C94.9712194,45.7058917 95.2720618,45.9275096 95.6090052,46.0859514 C95.9469515,46.2433904 96.3079623,46.333642 96.6910349,46.353698 C97.0741075,46.3757595 97.4541717,46.3206057 97.8312274,46.1922478 C98.2082832,46.0638899 98.5422182,45.8743615 98.8330325,45.6246652 C99.122844,45.3739662 99.3564982,45.0821526 99.5309868,44.7482215 C99.7054753,44.4142904 99.8107702,44.0552895 99.8458684,43.6732242 C99.8809667,43.2891533 99.8318291,42.8990656 99.6974529,42.5059696 C99.5630766,42.1108679 99.3645207,41.7739285 99.1027878,41.49114 C98.8400521,41.2103571 98.538207,40.9907448 98.1962495,40.8333058 C97.8532892,40.6758668 97.4912756,40.586618 97.1072002,40.5655593 C96.7241276,40.5455033 96.3440634,40.5996543 95.9680104,40.7270094 C95.5909547,40.8553673 95.2570197,41.0458986 94.9662054,41.2965976 C94.6753911,41.5472966 94.4447453,41.8391102 94.274268,42.1710357 C94.1037906,42.5029612 94.0005014,42.8599566 93.9664059,43.2430247 C93.9303049,43.6270955 93.9804452,44.0151776 94.1138187,44.4092765 Z M115.98215,39.9946675 L112.758123,39.4190626 L112.450261,41.1408633 L115.387485,41.6653257 L114.982351,43.9336503 L112.045126,43.4081852 L111.323105,47.4524616 L108.644605,46.9741279 L110.484757,36.6724042 L116.387284,37.7263429 L115.98215,39.9946675 Z M128.2499,46.4109576 L125.530285,44.5858688 L124.555556,46.0369147 L127.033494,47.7005533 L125.748897,49.6138881 L123.271961,47.9502495 L120.981548,51.3617616 L118.723225,49.845534 L124.555556,41.1563064 L129.534497,44.4986256 L128.2499,46.4109576 Z M136.907441,57.2135779 L135.182611,54.4769475 L133.702467,55.4105506 L135.33203,57.9937532 L133.382571,59.2231811 L131.754011,56.6399785 L130.227738,57.6016599 L131.952567,60.3372875 L130.003109,61.5667154 L126.827216,56.529671 L135.680004,50.9481083 L138.855897,55.9851527 L136.907441,57.2135779 Z M140.526474,70.9315267 L140.083233,67.7275934 L138.350381,67.9672617 L138.769555,70.9926973 L136.487164,71.3075752 L136.06799,68.2821396 L134.279984,68.5298302 L134.724228,71.7337636 L132.440834,72.0496443 L131.626554,66.1501953 L141.992579,64.7171997 L142.808865,70.615646 L140.526474,70.9315267 Z M135.669575,86.1927787 L133.768251,89.6303635 L137.302146,91.5848129 L135.985459,93.9644479 L126.827818,88.8993252 L128.144505,86.5186874 L131.922082,88.6075115 L133.823406,85.1709295 L130.045828,83.0821054 L131.362515,80.7004648 L140.520156,85.7665904 L139.20347,88.1472282 L135.669575,86.1927787 Z M118.662956,97.1400021 L122.035399,95.208617 L121.673385,93.320352 L124.190433,91.8773286 L125.937325,102.940174 L123.360108,104.415287 L114.69986,97.3154914 L117.216907,95.8734707 L118.662956,97.1400021 Z M120.317589,98.576006 L123.109406,100.991742 L122.437525,97.36162 L120.317589,98.576006 Z M108.411151,108.379641 L108.024067,100.226909 L104.765945,100.38134 L104.656639,98.0799228 L110.632371,97.7961316 L111.128761,108.25028 L108.411151,108.379641 Z M94.1647613,106.122447 L97.0127357,98.474122 L93.9561773,97.3359485 L94.7594264,95.1769286 L100.366125,97.2637472 L96.7149017,107.071092 L94.1647613,106.122447 Z" id="coffee-logo"></path>
        </g>
    </g>
</svg>